<mxfile host="65bd71144e">
    <diagram id="zbdvSB2lmjS0kx4ObIsb" name="Page-1">
        <mxGraphModel dx="1932" dy="2203" grid="1" gridSize="10" guides="1" tooltips="1" connect="1" arrows="1" fold="1" page="1" pageScale="1" pageWidth="850" pageHeight="1100" math="0" shadow="0">
            <root>
                <mxCell id="0"/>
                <mxCell id="1" parent="0"/>
                <mxCell id="2" value="C0" style="whiteSpace=wrap;html=1;aspect=fixed;fillColor=#d5e8d4;strokeColor=#000000;strokeWidth=3;fontSize=50;fontStyle=1" vertex="1" parent="1">
                    <mxGeometry x="100.00000000000023" y="-610" width="140" height="140" as="geometry"/>
                </mxCell>
                <mxCell id="3" value="" style="group;strokeWidth=3;strokeColor=#b85450;fillColor=#f8cecc;container=0;" vertex="1" connectable="0" parent="1">
                    <mxGeometry x="101" y="-700" width="550" height="40" as="geometry"/>
                </mxCell>
                <mxCell id="14" value="C1" style="whiteSpace=wrap;html=1;aspect=fixed;fillColor=#d5e8d4;strokeColor=#000000;strokeWidth=3;fontSize=50;fontStyle=1" vertex="1" parent="1">
                    <mxGeometry x="236.00000000000023" y="-610" width="140" height="140" as="geometry"/>
                </mxCell>
                <mxCell id="16" value="C2" style="whiteSpace=wrap;html=1;aspect=fixed;fillColor=#d5e8d4;strokeColor=#000000;strokeWidth=3;fontSize=50;fontStyle=1" vertex="1" parent="1">
                    <mxGeometry x="374.60000000000014" y="-610" width="140" height="140" as="geometry"/>
                </mxCell>
                <mxCell id="48" style="edgeStyle=none;html=1;entryX=0.104;entryY=0;entryDx=0;entryDy=0;entryPerimeter=0;fontSize=28;startArrow=none;startFill=0;endArrow=classic;endFill=1;strokeWidth=3;fillColor=#f8cecc;strokeColor=#b85450;" edge="1" parent="1" source="19" target="4">
                    <mxGeometry relative="1" as="geometry"/>
                </mxCell>
                <mxCell id="19" value="AG0" style="ellipse;whiteSpace=wrap;html=1;aspect=fixed;strokeWidth=3;fontStyle=1;fontSize=28;fillColor=#e1d5e7;strokeColor=#000000;" vertex="1" parent="1">
                    <mxGeometry x="118" y="-809.5999999999999" width="80" height="80" as="geometry"/>
                </mxCell>
                <mxCell id="49" style="edgeStyle=none;html=1;entryX=0.5;entryY=0;entryDx=0;entryDy=0;fontSize=28;startArrow=none;startFill=0;endArrow=classic;endFill=1;strokeWidth=3;fillColor=#f8cecc;strokeColor=#b85450;" edge="1" parent="1" source="25">
                    <mxGeometry relative="1" as="geometry">
                        <mxPoint x="306" y="-700" as="targetPoint"/>
                    </mxGeometry>
                </mxCell>
                <mxCell id="25" value="AG1" style="ellipse;whiteSpace=wrap;html=1;aspect=fixed;strokeWidth=3;fontStyle=1;fontSize=28;fillColor=#e1d5e7;strokeColor=#000000;" vertex="1" parent="1">
                    <mxGeometry x="265" y="-810" width="80" height="80" as="geometry"/>
                </mxCell>
                <mxCell id="51" style="edgeStyle=none;html=1;entryX=0.862;entryY=-0.017;entryDx=0;entryDy=0;entryPerimeter=0;fontSize=28;startArrow=none;startFill=0;endArrow=classic;endFill=1;strokeWidth=3;fillColor=#f8cecc;strokeColor=#b85450;" edge="1" parent="1" source="27">
                    <mxGeometry relative="1" as="geometry">
                        <mxPoint x="577.0999999999999" y="-700.6800000000001" as="targetPoint"/>
                    </mxGeometry>
                </mxCell>
                <mxCell id="27" value="AG3" style="ellipse;whiteSpace=wrap;html=1;aspect=fixed;strokeWidth=3;fontStyle=1;fontSize=28;fillColor=#e1d5e7;strokeColor=#000000;" vertex="1" parent="1">
                    <mxGeometry x="537" y="-810" width="80" height="80" as="geometry"/>
                </mxCell>
                <mxCell id="39" value="" style="group;strokeWidth=3;strokeColor=#000000;" vertex="1" connectable="0" parent="1">
                    <mxGeometry x="100" y="-420" width="550" height="40" as="geometry"/>
                </mxCell>
                <mxCell id="40" value="" style="rounded=0;whiteSpace=wrap;html=1;fillColor=#CCFFFF;strokeWidth=3;strokeColor=#000000;" vertex="1" parent="39">
                    <mxGeometry width="550" height="40" as="geometry"/>
                </mxCell>
                <mxCell id="41" value="" style="group;strokeWidth=3;strokeColor=none;" vertex="1" connectable="0" parent="39">
                    <mxGeometry x="247.503422489083" y="10" width="52.838427947598255" height="20" as="geometry"/>
                </mxCell>
                <mxCell id="42" value="" style="endArrow=none;html=1;rounded=0;strokeWidth=3;strokeColor=#000000;" edge="1" parent="41">
                    <mxGeometry width="50" height="50" relative="1" as="geometry">
                        <mxPoint as="sourcePoint"/>
                        <mxPoint x="20.5482775351771" as="targetPoint"/>
                    </mxGeometry>
                </mxCell>
                <mxCell id="43" value="" style="endArrow=none;html=1;rounded=0;strokeWidth=3;strokeColor=#000000;" edge="1" parent="41">
                    <mxGeometry width="50" height="50" relative="1" as="geometry">
                        <mxPoint x="20.5482775351771" as="sourcePoint"/>
                        <mxPoint x="32.290150412421156" y="20" as="targetPoint"/>
                    </mxGeometry>
                </mxCell>
                <mxCell id="44" value="" style="endArrow=none;html=1;rounded=0;strokeWidth=3;strokeColor=#000000;" edge="1" parent="41">
                    <mxGeometry width="50" height="50" relative="1" as="geometry">
                        <mxPoint x="20.5482775351771" y="20" as="sourcePoint"/>
                        <mxPoint x="32.290150412421156" as="targetPoint"/>
                    </mxGeometry>
                </mxCell>
                <mxCell id="45" value="" style="endArrow=none;html=1;rounded=0;strokeWidth=3;strokeColor=#000000;" edge="1" parent="41">
                    <mxGeometry width="50" height="50" relative="1" as="geometry">
                        <mxPoint x="32.290150412421156" as="sourcePoint"/>
                        <mxPoint x="52.838427947598255" as="targetPoint"/>
                    </mxGeometry>
                </mxCell>
                <mxCell id="46" value="" style="endArrow=none;html=1;rounded=0;strokeWidth=3;strokeColor=#000000;" edge="1" parent="41">
                    <mxGeometry width="50" height="50" relative="1" as="geometry">
                        <mxPoint x="32.290150412421156" y="20" as="sourcePoint"/>
                        <mxPoint x="52.838427947598255" y="20" as="targetPoint"/>
                    </mxGeometry>
                </mxCell>
                <mxCell id="47" value="" style="endArrow=none;html=1;rounded=0;strokeWidth=3;strokeColor=#000000;" edge="1" parent="41">
                    <mxGeometry width="50" height="50" relative="1" as="geometry">
                        <mxPoint y="20" as="sourcePoint"/>
                        <mxPoint x="20.5482775351771" y="20" as="targetPoint"/>
                    </mxGeometry>
                </mxCell>
                <mxCell id="56" style="edgeStyle=none;html=1;fontSize=28;startArrow=none;startFill=0;endArrow=classic;endFill=1;strokeWidth=3;exitX=0.5;exitY=1;exitDx=0;exitDy=0;fillColor=#f8cecc;strokeColor=#b85450;" edge="1" parent="1">
                    <mxGeometry relative="1" as="geometry">
                        <mxPoint x="376" y="-616" as="targetPoint"/>
                        <mxPoint x="375.9999999999999" y="-656" as="sourcePoint"/>
                    </mxGeometry>
                </mxCell>
                <mxCell id="57" style="edgeStyle=none;html=1;fontSize=28;startArrow=none;startFill=0;endArrow=classic;endFill=1;strokeWidth=3;exitX=0.5;exitY=1;exitDx=0;exitDy=0;fillColor=#fff2cc;strokeColor=#000000;" edge="1" parent="1">
                    <mxGeometry relative="1" as="geometry">
                        <mxPoint x="158" y="-424.0000000000002" as="targetPoint"/>
                        <mxPoint x="158" y="-464" as="sourcePoint"/>
                    </mxGeometry>
                </mxCell>
                <mxCell id="58" style="edgeStyle=none;html=1;fontSize=28;startArrow=none;startFill=0;endArrow=classic;endFill=1;strokeWidth=3;exitX=0.5;exitY=1;exitDx=0;exitDy=0;fillColor=#f8cecc;strokeColor=#b85450;" edge="1" parent="1">
                    <mxGeometry relative="1" as="geometry">
                        <mxPoint x="157.87" y="-617" as="targetPoint"/>
                        <mxPoint x="157.8699999999999" y="-657" as="sourcePoint"/>
                    </mxGeometry>
                </mxCell>
                <mxCell id="59" value="C3" style="whiteSpace=wrap;html=1;aspect=fixed;fillColor=#d5e8d4;strokeColor=#000000;strokeWidth=3;fontSize=50;fontStyle=1" vertex="1" parent="1">
                    <mxGeometry x="514.6000000000001" y="-610" width="140" height="140" as="geometry"/>
                </mxCell>
                <mxCell id="60" style="edgeStyle=none;html=1;fontSize=28;startArrow=none;startFill=0;endArrow=classic;endFill=1;strokeWidth=3;exitX=0.5;exitY=1;exitDx=0;exitDy=0;fillColor=#f8cecc;strokeColor=#b85450;" edge="1" parent="1">
                    <mxGeometry relative="1" as="geometry">
                        <mxPoint x="574.87" y="-615" as="targetPoint"/>
                        <mxPoint x="574.8699999999999" y="-655" as="sourcePoint"/>
                    </mxGeometry>
                </mxCell>
                <mxCell id="61" value="" style="endArrow=none;dashed=1;html=1;rounded=0;strokeWidth=10;jumpStyle=arc;strokeColor=#000000;" edge="1" parent="1">
                    <mxGeometry width="50" height="50" relative="1" as="geometry">
                        <mxPoint x="679.9999999999999" y="-540.2100000000002" as="sourcePoint"/>
                        <mxPoint x="770" y="-540" as="targetPoint"/>
                    </mxGeometry>
                </mxCell>
                <mxCell id="62" style="edgeStyle=none;html=1;fontSize=28;startArrow=none;startFill=0;endArrow=classic;endFill=1;strokeWidth=3;exitX=0.5;exitY=1;exitDx=0;exitDy=0;fillColor=#fff2cc;strokeColor=#000000;" edge="1" parent="1">
                    <mxGeometry relative="1" as="geometry">
                        <mxPoint x="305" y="-425.00000000000034" as="targetPoint"/>
                        <mxPoint x="305" y="-464.9999999999999" as="sourcePoint"/>
                    </mxGeometry>
                </mxCell>
                <mxCell id="63" style="edgeStyle=none;html=1;fontSize=28;startArrow=none;startFill=0;endArrow=classic;endFill=1;strokeWidth=3;exitX=0.5;exitY=1;exitDx=0;exitDy=0;fillColor=#fff2cc;strokeColor=#000000;" edge="1" parent="1">
                    <mxGeometry relative="1" as="geometry">
                        <mxPoint x="445" y="-424.00000000000034" as="targetPoint"/>
                        <mxPoint x="445" y="-464" as="sourcePoint"/>
                    </mxGeometry>
                </mxCell>
                <mxCell id="64" style="edgeStyle=none;html=1;fontSize=28;startArrow=none;startFill=0;endArrow=classic;endFill=1;strokeWidth=3;exitX=0.5;exitY=1;exitDx=0;exitDy=0;fillColor=#fff2cc;strokeColor=#000000;" edge="1" parent="1">
                    <mxGeometry relative="1" as="geometry">
                        <mxPoint x="585" y="-425.00000000000034" as="targetPoint"/>
                        <mxPoint x="585" y="-464.9999999999999" as="sourcePoint"/>
                    </mxGeometry>
                </mxCell>
                <mxCell id="67" style="edgeStyle=none;html=1;fontSize=28;startArrow=none;startFill=0;endArrow=classic;endFill=1;strokeWidth=3;exitX=0.5;exitY=1;exitDx=0;exitDy=0;fillColor=#fff2cc;strokeColor=#000000;" edge="1" parent="1">
                    <mxGeometry relative="1" as="geometry">
                        <mxPoint x="159" y="-332.0000000000002" as="targetPoint"/>
                        <mxPoint x="159" y="-372" as="sourcePoint"/>
                    </mxGeometry>
                </mxCell>
                <mxCell id="68" style="edgeStyle=none;html=1;fontSize=28;startArrow=none;startFill=0;endArrow=classic;endFill=1;strokeWidth=3;exitX=0.5;exitY=1;exitDx=0;exitDy=0;fillColor=#fff2cc;strokeColor=#000000;" edge="1" parent="1">
                    <mxGeometry relative="1" as="geometry">
                        <mxPoint x="306" y="-333.00000000000045" as="targetPoint"/>
                        <mxPoint x="306" y="-373" as="sourcePoint"/>
                    </mxGeometry>
                </mxCell>
                <mxCell id="69" style="edgeStyle=none;html=1;fontSize=28;startArrow=none;startFill=0;endArrow=classic;endFill=1;strokeWidth=3;exitX=0.5;exitY=1;exitDx=0;exitDy=0;fillColor=#fff2cc;strokeColor=#000000;" edge="1" parent="1">
                    <mxGeometry relative="1" as="geometry">
                        <mxPoint x="446" y="-332.00000000000045" as="targetPoint"/>
                        <mxPoint x="446" y="-372" as="sourcePoint"/>
                    </mxGeometry>
                </mxCell>
                <mxCell id="70" style="edgeStyle=none;html=1;fontSize=28;startArrow=none;startFill=0;endArrow=classic;endFill=1;strokeWidth=3;exitX=0.5;exitY=1;exitDx=0;exitDy=0;fillColor=#fff2cc;strokeColor=#000000;" edge="1" parent="1">
                    <mxGeometry relative="1" as="geometry">
                        <mxPoint x="586" y="-333.00000000000045" as="targetPoint"/>
                        <mxPoint x="586" y="-373" as="sourcePoint"/>
                    </mxGeometry>
                </mxCell>
                <mxCell id="4" value="" style="rounded=0;whiteSpace=wrap;html=1;fillColor=#f8cecc;strokeWidth=3;strokeColor=#b85450;" vertex="1" parent="1">
                    <mxGeometry x="101" y="-700" width="550" height="40" as="geometry"/>
                </mxCell>
                <mxCell id="5" value="" style="group;strokeWidth=3;strokeColor=none;" vertex="1" connectable="0" parent="1">
                    <mxGeometry x="348.503422489083" y="-690" width="52.838427947598255" height="20" as="geometry"/>
                </mxCell>
                <mxCell id="6" value="" style="endArrow=none;html=1;rounded=0;strokeWidth=3;strokeColor=#000000;" edge="1" parent="5">
                    <mxGeometry width="50" height="50" relative="1" as="geometry">
                        <mxPoint as="sourcePoint"/>
                        <mxPoint x="20.5482775351771" as="targetPoint"/>
                    </mxGeometry>
                </mxCell>
                <mxCell id="7" value="" style="endArrow=none;html=1;rounded=0;strokeWidth=3;strokeColor=#000000;" edge="1" parent="5">
                    <mxGeometry width="50" height="50" relative="1" as="geometry">
                        <mxPoint x="20.5482775351771" as="sourcePoint"/>
                        <mxPoint x="32.290150412421156" y="20" as="targetPoint"/>
                    </mxGeometry>
                </mxCell>
                <mxCell id="8" value="" style="endArrow=none;html=1;rounded=0;strokeWidth=3;strokeColor=#000000;" edge="1" parent="5">
                    <mxGeometry width="50" height="50" relative="1" as="geometry">
                        <mxPoint x="20.5482775351771" y="20" as="sourcePoint"/>
                        <mxPoint x="32.290150412421156" as="targetPoint"/>
                    </mxGeometry>
                </mxCell>
                <mxCell id="9" value="" style="endArrow=none;html=1;rounded=0;strokeWidth=3;strokeColor=#000000;" edge="1" parent="5">
                    <mxGeometry width="50" height="50" relative="1" as="geometry">
                        <mxPoint x="32.290150412421156" as="sourcePoint"/>
                        <mxPoint x="52.838427947598255" as="targetPoint"/>
                    </mxGeometry>
                </mxCell>
                <mxCell id="10" value="" style="endArrow=none;html=1;rounded=0;strokeWidth=3;strokeColor=#000000;" edge="1" parent="5">
                    <mxGeometry width="50" height="50" relative="1" as="geometry">
                        <mxPoint x="32.290150412421156" y="20" as="sourcePoint"/>
                        <mxPoint x="52.838427947598255" y="20" as="targetPoint"/>
                    </mxGeometry>
                </mxCell>
                <mxCell id="11" value="" style="endArrow=none;html=1;rounded=0;strokeWidth=3;strokeColor=#000000;" edge="1" parent="5">
                    <mxGeometry width="50" height="50" relative="1" as="geometry">
                        <mxPoint y="20" as="sourcePoint"/>
                        <mxPoint x="20.5482775351771" y="20" as="targetPoint"/>
                    </mxGeometry>
                </mxCell>
                <mxCell id="71" value="Control" style="text;html=1;strokeColor=none;fillColor=none;align=center;verticalAlign=middle;whiteSpace=wrap;rounded=0;fontSize=28;rotation=90;fontStyle=1" vertex="1" parent="1">
                    <mxGeometry x="700" y="-710" width="60" height="30" as="geometry"/>
                </mxCell>
                <mxCell id="73" value="" style="shape=curlyBracket;whiteSpace=wrap;html=1;rounded=1;flipH=1;fontSize=28;strokeColor=#000000;strokeWidth=3;" vertex="1" parent="1">
                    <mxGeometry x="680" y="-755" width="20" height="120" as="geometry"/>
                </mxCell>
                <mxCell id="74" value="Data" style="text;html=1;strokeColor=none;fillColor=none;align=center;verticalAlign=middle;whiteSpace=wrap;rounded=0;fontSize=28;rotation=90;fontStyle=1" vertex="1" parent="1">
                    <mxGeometry x="710" y="-435" width="60" height="30" as="geometry"/>
                </mxCell>
                <mxCell id="75" value="" style="shape=curlyBracket;whiteSpace=wrap;html=1;rounded=1;flipH=1;fontSize=28;strokeColor=#000000;strokeWidth=3;" vertex="1" parent="1">
                    <mxGeometry x="690" y="-480" width="20" height="120" as="geometry"/>
                </mxCell>
                <mxCell id="78" style="edgeStyle=none;html=1;entryX=0.5;entryY=0;entryDx=0;entryDy=0;fontSize=28;startArrow=none;startFill=0;endArrow=classic;endFill=1;strokeWidth=3;fillColor=#f8cecc;strokeColor=#b85450;" edge="1" parent="1" source="79">
                    <mxGeometry relative="1" as="geometry">
                        <mxPoint x="446" y="-700" as="targetPoint"/>
                    </mxGeometry>
                </mxCell>
                <mxCell id="79" value="AG2" style="ellipse;whiteSpace=wrap;html=1;aspect=fixed;strokeWidth=3;fontStyle=1;fontSize=28;fillColor=#e1d5e7;strokeColor=#000000;" vertex="1" parent="1">
                    <mxGeometry x="405" y="-810" width="80" height="80" as="geometry"/>
                </mxCell>
            </root>
        </mxGraphModel>
    </diagram>
</mxfile>